<?xml version="1.0" encoding="UTF-8"?>
<svg version="1.1" xmlns="http://www.w3.org/2000/svg" width="128" height="128">
<path d="M0 0 C0.763125 0.495 1.52625 0.99 2.3125 1.5 C5.36875444 3.20581643 6.47089058 3.04354815 9.875 2.8125 C13.83885528 2.68825976 15.89648285 3.11231979 19 5.625 C21.83840024 8.4300073 23.15451178 11.05438831 24 15 C27.3 15 30.6 15 34 15 C34.495 16.485 34.495 16.485 35 18 C37.78526449 19.25325285 37.78526449 19.25325285 41.0625 20.1875 C43.021875 20.785625 44.98125 21.38375 47 22 C47 26.62 47 31.24 47 36 C49.31 36 51.62 36 54 36 C56.83297226 37.7627383 58.56800682 38.97857612 59.87890625 42.078125 C60.8199953 44.16136882 60.8199953 44.16136882 62.8828125 44.6875 C63.99269531 44.8421875 63.99269531 44.8421875 65.125 45 C68.51752079 45.48292111 71.13784784 46.4959223 74.16748047 48.04296875 C75.24496048 48.59053833 75.24496048 48.59053833 76.34420776 49.14916992 C76.8906192 49.42994385 77.43703064 49.71071777 78 50 C78.01458252 51.17804199 78.02916504 52.35608398 78.04418945 53.56982422 C78.10311927 58.03201425 78.18032492 62.49374815 78.26245117 66.95556641 C78.29526327 68.86955239 78.32342362 70.78362501 78.34643555 72.69775391 C78.47858629 83.4103991 78.91717687 93.76221606 81.05574036 104.28610229 C81.82646815 108.17127741 82.12178421 111.17054121 81 115 C75.63043859 115.86440207 70.25936996 116.71849112 64.88671875 117.56347656 C63.06303808 117.85173161 61.23978311 118.14269454 59.41699219 118.43652344 C56.78170055 118.8608256 54.14498041 119.27503996 51.5078125 119.6875 C50.30561569 119.88436401 50.30561569 119.88436401 49.07913208 120.08520508 C39.47673054 121.56392805 31.7835929 121.59100277 22.875 117.5 C22.10929687 117.16613281 21.34359375 116.83226563 20.5546875 116.48828125 C18.69594154 115.67507989 16.8468504 114.839867 15 114 C15 113.34 15 112.68 15 112 C13.10416667 112.14583333 11.20833333 112.29166667 9.3125 112.4375 C8.11109375 112.51613281 6.9096875 112.59476562 5.671875 112.67578125 C2.09653194 112.92248748 2.09653194 112.92248748 -0.984375 113.60546875 C-9.13862675 115.04001304 -15.25926753 112.84339055 -22.75 109.8125 C-23.73991943 109.41369629 -24.72983887 109.01489258 -25.74975586 108.60400391 C-31.04831992 106.31290795 -31.04831992 106.31290795 -33 105 C-34.15762191 101.91320648 -33.94279779 99.95896958 -32.99731445 96.84716797 C-28.51452116 80.78009173 -28.59767706 65.69871033 -29.1875 49.125 C-29.26101147 46.47923623 -29.3319903 43.83340084 -29.40039062 41.1875 C-29.57116469 34.79046777 -29.7758645 28.3953757 -30 22 C-25.71 21.34 -21.42 20.68 -17 20 C-16.690625 17.2465625 -16.690625 17.2465625 -16.375 14.4375 C-15.40595785 8.4968503 -13.61195356 4.87253709 -9 1 C-5.93570224 -0.53214888 -3.3834358 -0.22938548 0 0 Z M-9.9296875 8 C-11.95657229 11.78746356 -12.37292485 15.78149443 -13 20 C-7.06 19.505 -7.06 19.505 -1 19 C-0.01 14.71 0.98 10.42 2 6 C-3.09654321 2.60230453 -6.10278505 2.99373768 -9.9296875 8 Z M10 7 C9.34 7.66 8.68 8.32 8 9 C8.99 11.64 9.98 14.28 11 17 C15.455 16.505 15.455 16.505 20 16 C18.65463623 11.5969913 16.83947688 9.528436 13 7 C12.01 7 11.02 7 10 7 Z M4 12 C3.67 13.98 3.34 15.96 3 18 C4.32 18 5.64 18 7 18 C6.34 16.02 5.68 14.04 5 12 C4.67 12 4.34 12 4 12 Z M49 40 C49.33 42.31 49.66 44.62 50 47 C53.465 46.505 53.465 46.505 57 46 C55.28239171 42.92321965 55.28239171 42.92321965 53 40 C51.68 40 50.36 40 49 40 Z " fill="#5FDC9E" transform="translate(40,3)"/>
<path d="M0 0 C4.27851483 1.57956798 5.73753707 4.09226164 7.6875 7.9921875 C9.76518097 8.56502733 11.84719395 8.88324415 13.97265625 9.234375 C16.50839334 9.94219226 18.52160377 10.84891272 20.85717773 12.03955078 C21.57518051 12.40396271 22.29318329 12.76837463 23.03294373 13.14382935 C23.5789473 13.42378754 24.12495087 13.70374573 24.6875 13.9921875 C24.70208252 15.17022949 24.71666504 16.34827148 24.73168945 17.56201172 C24.79061927 22.02420175 24.86782492 26.48593565 24.94995117 30.94775391 C24.98276327 32.86173989 25.01092362 34.77581251 25.03393555 36.68994141 C25.16608629 47.4025866 25.60467687 57.75440356 27.74324036 68.27828979 C28.51396815 72.16346491 28.80928421 75.16272871 27.6875 78.9921875 C22.31793859 79.85658957 16.94686996 80.71067862 11.57421875 81.55566406 C9.75053808 81.84391911 7.92728311 82.13488204 6.10449219 82.42871094 C3.46920055 82.8530131 0.83248041 83.26722746 -1.8046875 83.6796875 C-2.60615204 83.81093018 -3.40761658 83.94217285 -4.23336792 84.07739258 C-13.83368179 85.55579406 -21.53371268 85.5775182 -30.4375 81.4921875 C-31.84172725 80.86658477 -33.24655282 80.24232391 -34.65185547 79.61914062 C-35.87207031 79.07682292 -37.09228516 78.53450521 -38.3125 77.9921875 C-38.02665039 76.9727002 -37.74080078 75.95321289 -37.44628906 74.90283203 C-34.0293438 61.81910978 -33.83884102 49.3225959 -34.0625 35.8671875 C-34.08262381 33.73308994 -34.10086403 31.59897376 -34.1171875 29.46484375 C-34.16065213 24.30681987 -34.22934498 19.14971787 -34.3125 13.9921875 C-28.3725 13.4971875 -28.3725 13.4971875 -22.3125 12.9921875 C-22.395 11.7959375 -22.4775 10.5996875 -22.5625 9.3671875 C-22.57833495 4.90964875 -21.1784892 2.4482333 -18.3125 -1.0078125 C-12.74671011 -3.79070745 -5.67494651 -1.48967346 0 0 Z M-4.3125 3.9921875 C-3.9825 6.3021875 -3.6525 8.6121875 -3.3125 10.9921875 C0.1525 10.4971875 0.1525 10.4971875 3.6875 9.9921875 C1.96989171 6.91540715 1.96989171 6.91540715 -0.3125 3.9921875 C-1.6325 3.9921875 -2.9525 3.9921875 -4.3125 3.9921875 Z " fill="#FD9E9E" transform="translate(93.3125,39.0078125)"/>
<path d="M0 0 C3.4375 2 3.4375 2 6 4 C5.34 4.99 4.68 5.98 4 7 C3.278125 6.67 2.55625 6.34 1.8125 6 C-1.15523736 4.9448045 -2.89800441 4.44323156 -6 5 C-10.83006347 9.11976002 -11.57343684 15.07976288 -13 21 C-6.565 20.505 -6.565 20.505 0 20 C0.495 24.455 0.495 24.455 1 29 C-4.24719169 30.47289591 -8.5121422 31.04482171 -14 31 C-13.49600757 39.45939988 -12.99176085 47.91878456 -12.48720646 56.37815094 C-12.25282512 60.30792028 -12.01852513 64.23769443 -11.78442383 68.16748047 C-11.5576869 71.97358896 -11.33071962 75.77968366 -11.10360527 79.58576965 C-11.01782791 81.02390574 -10.93212784 82.46204644 -10.84651375 83.90019226 C-10.24908394 93.93462597 -9.6319572 103.96768593 -9 114 C-14.99909624 112.380066 -20.80778783 110.41139228 -26.5625 108.0625 C-27.76003906 107.57910156 -28.95757812 107.09570312 -30.19140625 106.59765625 C-33 105 -33 105 -33.73820496 103.15969849 C-34.03503793 100.71095188 -33.71239436 99.20065928 -32.99731445 96.84716797 C-28.51452116 80.78009173 -28.59767706 65.69871033 -29.1875 49.125 C-29.26101147 46.47923623 -29.3319903 43.83340084 -29.40039062 41.1875 C-29.57116469 34.79046777 -29.7758645 28.3953757 -30 22 C-25.71 21.34 -21.42 20.68 -17 20 C-16.690625 17.2465625 -16.690625 17.2465625 -16.375 14.4375 C-15.40595785 8.4968503 -13.61195356 4.87253709 -9 1 C-5.89046621 -0.5547669 -3.43733239 -0.28644437 0 0 Z " fill="#25A598" transform="translate(40,3)"/>
<path d="M0 0 C1.9375 1.5 1.9375 1.5 3 3 C-0.38018531 4.04005702 -3.4780279 4.08004482 -7 4 C-9.12046792 7.53411321 -9.53199289 10.94393835 -10 15 C-7.36 15 -4.72 15 -2 15 C-2 17.31 -2 19.62 -2 22 C-5.3 22.66 -8.6 23.32 -12 24 C-12.04991844 30.02822705 -12.08596198 36.05633034 -12.10986328 42.0847168 C-12.11984099 44.12998555 -12.13342795 46.17524034 -12.15087891 48.22045898 C-12.31899995 63.42158747 -12.31899995 63.42158747 -10.43310547 78.4699707 C-9.99482773 81.03021433 -9.92570027 83.40799253 -10 86 C-12.18697502 83.20375042 -13.99152813 80.36692128 -15.6875 77.25 C-16.12449219 76.45078125 -16.56148437 75.6515625 -17.01171875 74.828125 C-17.33785156 74.22484375 -17.66398437 73.6215625 -18 73 C-21.45925163 74.2491742 -24.14693203 75.67527795 -27 78 C-27.1678793 74.05483654 -27.01525719 70.75062192 -26.00439453 66.92993164 C-24.78064837 61.61094578 -24.74620785 56.49574632 -24.8046875 51.05859375 C-24.8075174 50.05031021 -24.81034729 49.04202667 -24.81326294 48.00318909 C-24.82436823 44.81450017 -24.84945455 41.62610259 -24.875 38.4375 C-24.88504228 36.26237388 -24.89416594 34.08724331 -24.90234375 31.91210938 C-24.92427589 26.60796238 -24.95873832 21.30403041 -25 16 C-19.06 15.505 -19.06 15.505 -13 15 C-13.0825 13.80375 -13.165 12.6075 -13.25 11.375 C-13.26583495 6.91746125 -11.8659892 4.4560458 -9 1 C-5.95016004 -0.52491998 -3.3576631 -0.23562548 0 0 Z " fill="#D45888" transform="translate(84,37)"/>
<path d="M0 0 C0.33 0 0.66 0 1 0 C2.10891944 14.71368511 3.12810324 29.43134028 3.99127197 44.16146851 C4.07929527 45.65961217 4.16857657 47.15768253 4.25921631 48.65567017 C4.80860037 57.77711038 5.12435431 66.85798465 5 76 C2.34700977 72.59225187 0.58852325 69.19671834 -1.1875 65.25 C-1.71730469 64.07953125 -2.24710938 62.9090625 -2.79296875 61.703125 C-3.19128906 60.81109375 -3.58960938 59.9190625 -4 59 C-8.28477792 61.30718811 -11.72291137 63.32966073 -15 67 C-15.66 66.67 -16.32 66.34 -17 66 C-15.022126 63.35319808 -13.04248453 60.70772337 -11.0625 58.0625 C-10.49853516 57.30775391 -9.93457031 56.55300781 -9.35351562 55.77539062 C-8.81533203 55.05673828 -8.27714844 54.33808594 -7.72265625 53.59765625 C-6.97640991 52.60004272 -6.97640991 52.60004272 -6.21508789 51.58227539 C-5 50 -5 50 -4 49 C-3.79367051 46.83762135 -3.65149948 44.66908219 -3.53515625 42.5 C-3.45760747 41.13085439 -3.37996722 39.76171396 -3.30224609 38.39257812 C-3.24360382 37.31472046 -3.24360382 37.31472046 -3.18377686 36.21508789 C-2.51986643 24.08894933 -1.70341621 12.03264219 0 0 Z " fill="#027B6D" transform="translate(25,38)"/>
<path d="M0 0 C2.36878935 39.76182124 2.36878935 39.76182124 -2 54 C-3.58272601 55.58272601 -5.38034003 55.34735747 -7.5625 55.5625 C-8.38878906 55.64628906 -9.21507812 55.73007813 -10.06640625 55.81640625 C-10.70449219 55.87699219 -11.34257813 55.93757813 -12 56 C-10.96049943 52.21999793 -9.70351833 49.59776494 -7.3125 46.5625 C-3.83547736 41.08107607 -4.99709498 35.72781767 -5.7265625 29.52734375 C-6.30100363 24.21786642 -6.65323036 18.88676356 -7.0625 13.5625 C-7.2396917 11.35537259 -7.41798532 9.14833322 -7.59765625 6.94140625 C-7.67508057 5.98951416 -7.75250488 5.03762207 -7.83227539 4.05688477 C-7.91529907 3.03872681 -7.91529907 3.03872681 -8 2 C-2.25 0 -2.25 0 0 0 Z " fill="#29A79A" transform="translate(59,59)"/>
<path d="M0 0 C3.4375 2 3.4375 2 6 4 C5.01 5.485 5.01 5.485 4 7 C3.278125 6.67 2.55625 6.34 1.8125 6 C-1.15523736 4.9448045 -2.89800441 4.44323156 -6 5 C-10.83006347 9.11976002 -11.57343684 15.07976288 -13 21 C-6.565 20.505 -6.565 20.505 0 20 C0.33 22.97 0.66 25.94 1 29 C-3.95 29.33 -8.9 29.66 -14 30 C-14 28.35 -14 26.7 -14 25 C-16.31 24.34 -18.62 23.68 -21 23 C-21 22.67 -21 22.34 -21 22 C-19.35 21.67 -17.7 21.34 -16 21 C-16.03480469 20.34773438 -16.06960937 19.69546875 -16.10546875 19.0234375 C-16.27460966 13.56260246 -16.23219668 9.63281524 -13 5 C-8.78998709 0.59862287 -6.10749817 -0.98156221 0 0 Z " fill="#01786B" transform="translate(40,3)"/>
<path d="M0 0 C0.33 0 0.66 0 1 0 C1.01458252 1.08716309 1.02916504 2.17432617 1.04418945 3.29443359 C1.10321875 7.42119397 1.18041838 11.5474664 1.26245117 15.67382812 C1.29521843 17.44230083 1.32339102 19.21086607 1.34643555 20.97949219 C1.4935072 31.98170351 2.297485 42.48447435 4.36791992 53.29931641 C4.88296303 56.31477545 5.13856174 58.95907125 5 62 C2.81302498 59.20375042 1.00847187 56.36692128 -0.6875 53.25 C-1.34298828 52.05117187 -1.34298828 52.05117187 -2.01171875 50.828125 C-2.33785156 50.22484375 -2.66398437 49.6215625 -3 49 C-6.45925163 50.2491742 -9.14693203 51.67527795 -12 54 C-10.73578628 50.51070945 -9.22692444 47.90709284 -7.0234375 44.9453125 C-2.22589427 37.08550764 -2.3309911 27.83478638 -1.625 18.875 C-1.46193945 17.0414603 -1.29659379 15.20812232 -1.12890625 13.375 C-0.72620661 8.91855673 -0.35457534 4.46051954 0 0 Z " fill="#AE2F60" transform="translate(69,61)"/>
<path d="M0 0 C0.99 0.33 1.98 0.66 3 1 C4.03131735 3.60862624 4.43057449 6.24047635 5 9 C8.3 8.67 11.6 8.34 15 8 C18 13.625 18 13.625 18 17 C3.78361982 19.39433771 3.78361982 19.39433771 -2 19 C-3 18 -3 18 -3.09765625 16.15234375 C-3.06510417 14.1015625 -3.03255208 12.05078125 -3 10 C-1.68 10 -0.36 10 1 10 C0.4740625 8.9171875 0.4740625 8.9171875 -0.0625 7.8125 C-1.10409017 4.6877295 -0.89096572 3.11838004 0 0 Z " fill="#26373B" transform="translate(46,11)"/>
<path d="M0 0 C1.9375 1.5 1.9375 1.5 3 3 C-0.38018531 4.04005702 -3.4780279 4.08004482 -7 4 C-9.12046792 7.53411321 -9.53199289 10.94393835 -10 15 C-7.36 15 -4.72 15 -2 15 C-2 17.31 -2 19.62 -2 22 C-12.39130737 23.72335311 -12.39130737 23.72335311 -16.25 21.98828125 C-17.90224366 20.74553763 -19.45839847 19.37760137 -21 18 C-21.99 17.67 -22.98 17.34 -24 17 C-24 25.25 -24 33.5 -24 42 C-24.33 42 -24.66 42 -25 42 C-25 33.42 -25 24.84 -25 16 C-19.06 15.505 -19.06 15.505 -13 15 C-13.0825 13.80375 -13.165 12.6075 -13.25 11.375 C-13.26583495 6.91746125 -11.8659892 4.4560458 -9 1 C-5.95016004 -0.52491998 -3.3576631 -0.23562548 0 0 Z " fill="#A96D88" transform="translate(84,37)"/>
<path d="M0 0 C0.33 2.97 0.66 5.94 1 9 C-3.95 9.33 -8.9 9.66 -14 10 C-14 8.35 -14 6.7 -14 5 C-16.31 4.34 -18.62 3.68 -21 3 C-21 2.67 -21 2.34 -21 2 C-18.43795456 1.66280953 -15.87545682 1.33012847 -13.3125 1 C-12.59126953 0.90460937 -11.87003906 0.80921875 -11.12695312 0.7109375 C-7.39007129 0.23316265 -3.77708469 -0.11919794 0 0 Z " fill="#263A3E" transform="translate(40,23)"/>
<path d="M0 0 C3 1 3 1 4.82421875 4.16015625 C5.45553148 5.45600869 6.07625399 6.75706229 6.6875 8.0625 C7.00783203 8.72572266 7.32816406 9.38894531 7.65820312 10.07226562 C8.4478598 11.71050858 9.22512362 13.35471454 10 15 C3.38757278 13.17778624 -2.80520671 10.94776396 -9 8 C-8.34 6.68 -7.68 5.36 -7 4 C-6.34 4 -5.68 4 -5 4 C-4.195625 3.319375 -3.39125 2.63875 -2.5625 1.9375 C-1.716875 1.298125 -0.87125 0.65875 0 0 Z " fill="#D55588" transform="translate(64,109)"/>
<path d="M0 0 C0.33 1.98 0.66 3.96 1 6 C-9.33690551 7.7143308 -9.33690551 7.7143308 -13.35546875 5.98828125 C-15.25 4.625 -15.25 4.625 -18 2 C-18 1.67 -18 1.34 -18 1 C-11.97403427 -0.0712828 -6.11090483 -0.09945415 0 0 Z " fill="#33343E" transform="translate(81,53)"/>
<path d="M0 0 C0.928125 0.103125 1.85625 0.20625 2.8125 0.3125 C3.8125 2.3125 3.8125 2.3125 3.25390625 4.4765625 C2.96386719 5.28867187 2.67382812 6.10078125 2.375 6.9375 C2.08753906 7.75476562 1.80007812 8.57203125 1.50390625 9.4140625 C1.16166016 10.35378906 1.16166016 10.35378906 0.8125 11.3125 C-1.4975 11.6425 -3.8075 11.9725 -6.1875 12.3125 C-6.40492881 8.61621031 -6.39514658 5.85468828 -5.0625 2.375 C-3.1875 0.3125 -3.1875 0.3125 0 0 Z " fill="#66D89E" transform="translate(80.1875,39.6875)"/>
<path d="M0 0 C0.33 1.98 0.66 3.96 1 6 C-3.62 6.33 -8.24 6.66 -13 7 C-13 5.35 -13 3.7 -13 2 C-11.39658445 1.66307215 -9.79223445 1.33058907 -8.1875 1 C-7.29417969 0.814375 -6.40085937 0.62875 -5.48046875 0.4375 C-3 0 -3 0 0 0 Z " fill="#2D333B" transform="translate(98,50)"/>
<path d="M0 0 C0.99 0.33 1.98 0.66 3 1 C4.03131735 3.60862624 4.43057449 6.24047635 5 9 C8.3 8.67 11.6 8.34 15 8 C15.33 8.66 15.66 9.32 16 10 C9.61773055 10.82351864 3.43255401 11.12086218 -3 11 C-1.68 10.67 -0.36 10.34 1 10 C0.4740625 8.9171875 0.4740625 8.9171875 -0.0625 7.8125 C-1.10409017 4.6877295 -0.89096572 3.11838004 0 0 Z " fill="#0F877A" transform="translate(46,11)"/>
<path d="M0 0 C0 0.99 0 1.98 0 3 C1.65 3.33 3.3 3.66 5 4 C5 4.66 5 5.32 5 6 C1.37 6.33 -2.26 6.66 -6 7 C-6.66 4.69 -7.32 2.38 -8 0 C-4.94736336 -0.98120464 -3.05263664 -0.98120464 0 0 Z " fill="#263B3F" transform="translate(73,20)"/>
<path d="M0 0 C1.9375 1.5 1.9375 1.5 3 3 C0.43532873 3.78912962 -1.34122355 3.97910876 -4.0625 3.8125 C-7.1195031 3.66514242 -7.1195031 3.66514242 -8.8125 6 C-9.4003125 6.99 -9.4003125 6.99 -10 8 C-10.33 8 -10.66 8 -11 8 C-11.33 10.31 -11.66 12.62 -12 15 C-12.33 15 -12.66 15 -13 15 C-13.42004622 8.90932974 -13.0566405 5.89183119 -9 1 C-5.95016004 -0.52491998 -3.3576631 -0.23562548 0 0 Z " fill="#CB648C" transform="translate(84,37)"/>
<path d="M0 0 C2.97 0 5.94 0 9 0 C9.33 0.99 9.66 1.98 10 3 C12.29920559 3.95362501 12.29920559 3.95362501 15 4.5625 C17.75 5.25390625 17.75 5.25390625 20 6 C20.33 6.66 20.66 7.32 21 8 C16.23692563 8.95261487 11.8333472 9.08333357 7 9 C7 8.67 7 8.34 7 8 C8.98 8 10.96 8 13 8 C13 7.34 13 6.68 13 6 C11.35 5.67 9.7 5.34 8 5 C7.67 4.01 7.34 3.02 7 2 C4.69 2 2.38 2 0 2 C0 1.34 0 0.68 0 0 Z " fill="#289E91" transform="translate(65,18)"/>
<path d="M0 0 C0 0.33 0 0.66 0 1 C-5.94 1.495 -5.94 1.495 -12 2 C-11.34 4.97 -10.68 7.94 -10 11 C-11.32 11 -12.64 11 -14 11 C-14.33 7.7 -14.66 4.4 -15 1 C-9.91913204 0.15318867 -5.15171623 -0.09038099 0 0 Z " fill="#2BA292" transform="translate(59,29)"/>
<path d="M0 0 C0.66 0 1.32 0 2 0 C2.33 2.31 2.66 4.62 3 7 C3.66 6.67 4.32 6.34 5 6 C6.99960012 5.960008 9.00047242 5.95653201 11 6 C7.83759418 8.10827055 6.49342531 8.33817465 2.8125 8.625 C1.91144531 8.69976562 1.01039062 8.77453125 0.08203125 8.8515625 C-0.60503906 8.90054688 -1.29210937 8.94953125 -2 9 C-2 10.65 -2 12.3 -2 14 C-2.33 14 -2.66 14 -3 14 C-3 12.02 -3 10.04 -3 8 C-2.01 8 -1.02 8 0 8 C-0.2784375 6.2984375 -0.2784375 6.2984375 -0.5625 4.5625 C-0.706875 3.386875 -0.85125 2.21125 -1 1 C-0.67 0.67 -0.34 0.34 0 0 Z " fill="#C85883" transform="translate(87,43)"/>
<path d="M0 0 C4.54805635 -0.17835515 7.8794254 0.00214565 12 2 C12 2.66 12 3.32 12 4 C8.7 4.33 5.4 4.66 2 5 C1.34 3.35 0.68 1.7 0 0 Z " fill="#3A3741" transform="translate(101,50)"/>
<path d="M0 0 C6.75479274 -0.7342166 11.18524285 1.72408048 17 5 C15 7 15 7 13.0546875 7.1953125 C11.03645833 7.13020833 9.01822917 7.06510417 7 7 C7 6.67 7 6.34 7 6 C8.65 6 10.3 6 12 6 C12 5.34 12 4.68 12 4 C6.06 3.01 6.06 3.01 0 2 C0 1.34 0 0.68 0 0 Z " fill="#CA5984" transform="translate(101,48)"/>
<path d="M0 0 C0.33 0.99 0.66 1.98 1 3 C-4.94 3.495 -4.94 3.495 -11 4 C-10.67 5.98 -10.34 7.96 -10 10 C-10.99 10.33 -11.98 10.66 -13 11 C-13.33 8.36 -13.66 5.72 -14 3 C-9.23692563 2.04738513 -4.8333472 1.91666643 0 2 C0 1.34 0 0.68 0 0 Z " fill="#CA5D84" transform="translate(99,54)"/>
<path d="M0 0 C1.32 0 2.64 0 4 0 C4.33 2.97 4.66 5.94 5 9 C3.68 8.67 2.36 8.34 1 8 C0.67 5.36 0.34 2.72 0 0 Z " fill="#2BA999" transform="translate(67,27)"/>
<path d="M0 0 C0.33 0 0.66 0 1 0 C1.33 5.94 1.66 11.88 2 18 C-1.49238487 13.34348683 -1.25378455 12.30988471 -0.6875 6.75 C-0.56761719 5.48671875 -0.44773437 4.2234375 -0.32421875 2.921875 C-0.21722656 1.95765625 -0.11023438 0.9934375 0 0 Z " fill="#118B75" transform="translate(25,38)"/>
<path d="M0 0 C1.32 0.33 2.64 0.66 4 1 C4 3.31 4 5.62 4 8 C3.34 8 2.68 8 2 8 C1.34 5.36 0.68 2.72 0 0 Z " fill="#D9628B" transform="translate(102,54)"/>
</svg>
